<svg xmlns="http://www.w3.org/2000/svg" viewBox="0 0 980 760" fill="none">
  <defs>
    <linearGradient id="side" x1="456" y1="126" x2="900" y2="724" gradientUnits="userSpaceOnUse">
      <stop stop-color="#3A404B" />
      <stop offset="0.54" stop-color="#20252E" />
      <stop offset="1" stop-color="#161A21" />
    </linearGradient>
    <linearGradient id="front" x1="244" y1="216" x2="616" y2="722" gradientUnits="userSpaceOnUse">
      <stop stop-color="#4C5561" />
      <stop offset="0.48" stop-color="#2A2F39" />
      <stop offset="1" stop-color="#171B23" />
    </linearGradient>
    <linearGradient id="roof" x1="438" y1="88" x2="892" y2="246" gradientUnits="userSpaceOnUse">
      <stop stop-color="#60728D" />
      <stop offset="1" stop-color="#29303A" />
    </linearGradient>
    <linearGradient id="roofFront" x1="274" y1="208" x2="734" y2="318" gradientUnits="userSpaceOnUse">
      <stop stop-color="#1B1F28" />
      <stop offset="1" stop-color="#363C46" />
    </linearGradient>
    <linearGradient id="glass" x1="0" y1="0" x2="1" y2="1">
      <stop stop-color="#C6E8FF" />
      <stop offset="0.38" stop-color="#7BB2DF" />
      <stop offset="1" stop-color="#415F8B" />
    </linearGradient>
    <linearGradient id="metal" x1="0" y1="0" x2="1" y2="1">
      <stop stop-color="#94A7C1" />
      <stop offset="1" stop-color="#46546A" />
    </linearGradient>
    <filter id="shadow" x="148" y="0" width="844" height="812" filterUnits="userSpaceOnUse" color-interpolation-filters="sRGB">
      <feDropShadow dx="0" dy="26" stdDeviation="26" flood-color="#0A121A" flood-opacity="0.25" />
    </filter>
  </defs>

  <g filter="url(#shadow)">
    <polygon points="416 136 900 274 900 746 416 590" fill="url(#side)" />
    <polygon points="238 236 618 346 618 760 238 622" fill="url(#front)" />
    <polygon points="416 136 654 42 980 174 744 268" fill="url(#roof)" />
    <polygon points="238 236 416 136 744 268 618 346" fill="url(#roofFront)" />

    <polygon points="601 246 702 207 703 284 603 323" fill="#57271F" />
    <path d="M611 246L611 320M624 241L624 314M637 236L637 308M650 231L650 302M663 226L663 297M676 221L676 291M689 216L689 286" stroke="#9E4E30" stroke-width="4" opacity="0.75" />

    <path d="M445 180L689 87" stroke="#D5E2F0" stroke-width="3" opacity="0.85" />
    <path d="M454 190L700 97" stroke="#F3FAFF" stroke-width="2" opacity="0.85" />
    <path d="M463 201L710 107" stroke="#D5E2F0" stroke-width="2" opacity="0.82" />

    <path d="M448 580L448 280M480 589L480 289M512 598L512 298M544 607L544 307M576 616L576 316" stroke="#66717E" stroke-opacity="0.28" stroke-width="4" />
    <path d="M442 382L618 433M442 451L618 503M442 520L618 573" stroke="#697381" stroke-opacity="0.18" stroke-width="4" />

    <path d="M460 327L543 351L543 448L460 423Z" fill="url(#glass)" stroke="#CFD8E3" stroke-width="4" />
    <path d="M667 384L792 421L792 550L667 512Z" fill="url(#glass)" stroke="#CFD8E3" stroke-width="4" />
    <path d="M804 425L906 454L906 569L804 541Z" fill="url(#glass)" stroke="#CFD8E3" stroke-width="4" />
    <path d="M802 257L896 284L896 385L802 359Z" fill="url(#glass)" stroke="#CFD8E3" stroke-width="4" />

    <path d="M297 442L358 460L358 575L297 555Z" fill="url(#glass)" stroke="#D7DFE8" stroke-width="4" />
    <path d="M407 474L486 497L486 625L407 599Z" fill="url(#glass)" stroke="#D7DFE8" stroke-width="4" />
    <path d="M514 505L586 526L586 662L514 638Z" fill="url(#glass)" stroke="#D7DFE8" stroke-width="4" />

    <path d="M219 623L625 761" stroke="#0E1218" stroke-width="4" opacity="0.22" />
    <path d="M415 136L744 268" stroke="#A8B6C8" stroke-width="5" opacity="0.55" />
    <path d="M744 268L744 741" stroke="#1C2027" stroke-width="5" opacity="0.45" />
    <path d="M238 236L618 346" stroke="#C4CDD8" stroke-width="5" opacity="0.35" />

    <polygon points="238 236 278 214 658 323 618 346" fill="#20252D" opacity="0.72" />
    <polygon points="416 136 456 118 940 256 900 274" fill="url(#metal)" opacity="0.66" />
  </g>
</svg>
